<?xml version="1.0" standalone="no"?>
<!DOCTYPE svg PUBLIC "-//W3C//DTD SVG 20010904//EN"
 "http://www.w3.org/TR/2001/REC-SVG-20010904/DTD/svg10.dtd">
 <svg version="1.0" xmlns="http://www.w3.org/2000/svg"
 width="121.000000pt" height="283.000000pt" viewBox="0 0 121.000000 283.000000"
 preserveAspectRatio="xMidYMid meet">
<linearGradient id="grad1" x1="0%" y1="0%" x2="0%" y2="100%"><stop offset="90%" stop-color="blue" /><stop offset="90%" stop-color="skyblue" /></linearGradient>
<g transform="translate(0.000000,283.000000) scale(0.100000,-0.100000)"
fill="skyblue" stroke="none">
<path class="teste" d="M555 2751 c-82 -21 -143 -78 -170 -161 -27 -81 1 -178 67 -236 l36
-32 -126 -4 c-110 -3 -135 -7 -182 -29 -70 -32 -116 -79 -149 -149 l-26 -55
-3 -380 c-2 -209 0 -395 3 -414 14 -72 93 -105 146 -62 l24 19 5 374 5 373 53
3 52 3 0 -943 c0 -878 1 -945 18 -978 20 -40 74 -80 109 -80 39 0 94 31 114
64 18 29 19 61 19 589 l0 557 55 0 55 0 0 -557 c0 -528 1 -560 19 -589 39 -64
126 -79 186 -32 57 45 55 8 55 1028 l0 941 53 -3 52 -3 5 -373 5 -374 24 -19
c57 -47 134 -9 146 72 4 24 5 208 3 409 l-3 365 -29 63 c-33 70 -86 124 -154
154 -35 16 -75 22 -172 26 l-127 5 38 34 c117 106 91 300 -51 373 -43 22 -114
32 -155 21z" fill="url(#grad1)"/>
</g>
</svg>
