<?xml version="1.0" encoding="utf-8"?>
<!DOCTYPE svg PUBLIC "-//W3C//DTD SVG 1.1//EN" "http://www.w3.org/Graphics/SVG/1.1/DTD/svg11.dtd">
<svg version="1.1" id="Layer_1" xmlns="http://www.w3.org/2000/svg" xmlns:xlink="http://www.w3.org/1999/xlink" x="0px" y="0px"
	 width="26px" height="26px" viewBox="0 0 26 26" enable-background="new 0 0 26 26" xml:space="preserve">
<linearGradient id="grad3" x1="0%" y1="0%" x2="0%" y2="100%">
	<stop offset="30%" stop-color="#7FFF00" />
	<stop offset="30%" stop-color="#66CD00" />
</linearGradient>
<path d="M21.832,9.899c-0.16-1.202-3.851-1.091-3.684-0.452s-1.252,1.131-1.252,1.131l-2.04,0.397
	c-1.241-0.986-1.802-1.295-2.232-1.571c-1.671-1.071-3.423,1.136-3.423,1.136S7.579,10.342,9.5,8.421
	c-6.685,3.432-3.503,4.004-3.503,4.004h1.879L7.576,12.91c-0.297-0.131-0.627-0.205-0.975-0.205c-1.346,0-2.437,1.092-2.437,2.437
	c0,1.346,1.091,2.438,2.437,2.438s2.437-1.092,2.437-2.438c0-0.755-0.344-1.429-0.884-1.876l0.258-0.418l2.599,2.896l0,0h0.226
	h4.713h0.584c0.268,1.054,1.222,1.836,2.359,1.836c1.346,0,2.436-1.092,2.436-2.438c0-1.345-1.09-2.437-2.436-2.437
	c-1.23,0-2.244,0.912-2.411,2.096h-0.023c0,0-0.213-0.783-0.592-1.753C17.133,12.625,21.971,10.944,21.832,9.899z M6.602,16.674
	c-0.845,0-1.531-0.687-1.531-1.532c0-0.845,0.687-1.531,1.531-1.531c0.173,0,0.338,0.029,0.493,0.083L6.567,14.55
	c-0.004,0.006-0.011,0.01-0.015,0.017L6.331,14.93c-0.001,0.004,0,0.006-0.002,0.008l-0.016,0.026l0.005,0.004
	c-0.07,0.154-0.021,0.34,0.128,0.431c0.148,0.09,0.333,0.049,0.438-0.083l0.007,0.005l0.02-0.032
	c0.001-0.002,0.003-0.003,0.004-0.004l0.099-0.162l0.66-1.073c0.284,0.278,0.46,0.665,0.46,1.093
	C8.133,15.987,7.446,16.674,6.602,16.674z M18.894,13.61c0.844,0,1.531,0.687,1.531,1.531c0,0.846-0.688,1.532-1.531,1.532
	c-0.632,0-1.176-0.385-1.409-0.931h1.859v-0.008h0.043c0.259,0.004,0.472-0.2,0.475-0.46c0.005-0.258-0.202-0.47-0.46-0.475
	l-0.583-0.007c-0.03-0.001-0.059,0.002-0.088,0.007h-1.329C17.556,14.12,18.165,13.61,18.894,13.61z" fill="url(#grad3)"/>
</svg>
