<?xml version="1.0" standalone="no"?>
<!DOCTYPE svg PUBLIC "-//W3C//DTD SVG 20010904//EN"
 "http://www.w3.org/TR/2001/REC-SVG-20010904/DTD/svg10.dtd">
<svg version="1.0" xmlns="http://www.w3.org/2000/svg"
 width="145.000000pt" height="284.000000pt" viewBox="0 0 145.000000 284.000000"
 preserveAspectRatio="xMidYMid meet">
<metadata>
Created by potrace 1.11, written by Peter Selinger 2001-2013
</metadata>
<linearGradient id="grad2" x1="0%" y1="0%" x2="0%" y2="100%"><stop offset="10%" stop-color="red" /><stop offset="10%" stop-color="pink" /></linearGradient>
<g transform="translate(0.000000,284.000000) scale(0.100000,-0.100000)"
fill="pink" stroke="none">
<path d="M685 2748 c-84 -17 -151 -77 -177 -158 -25 -78 -2 -176 55 -230 15
-14 27 -27 27 -30 0 -3 -30 -6 -67 -7 -99 -3 -131 -11 -188 -48 -64 -43 -85
-67 -112 -130 -18 -42 -62 -177 -69 -210 -1 -6 -15 -55 -32 -110 -77 -247
-113 -370 -114 -390 -3 -30 22 -85 38 -85 8 0 14 -4 14 -10 0 -5 17 -10 39
-10 53 0 84 32 105 106 9 32 19 66 22 74 3 8 5 16 5 17 0 2 7 22 15 45 9 24
18 54 20 67 3 14 7 28 10 33 3 4 7 16 9 25 2 10 17 65 35 123 18 58 37 122 42
143 10 36 11 37 59 37 l48 0 -21 -72 c-11 -40 -31 -111 -44 -158 -13 -47 -26
-93 -29 -102 -3 -10 -7 -28 -10 -40 -3 -13 -11 -45 -20 -73 -21 -71 -48 -168
-51 -180 -1 -5 -7 -30 -15 -55 -7 -25 -14 -49 -15 -55 -2 -5 -10 -35 -18 -65
-8 -30 -24 -89 -36 -130 -11 -41 -22 -79 -23 -85 -2 -5 -6 -15 -10 -21 -3 -6
-4 -14 0 -18 3 -3 68 -6 144 -6 l138 0 1 -431 c0 -467 0 -462 56 -487 46 -21
93 -15 125 17 16 16 30 35 30 43 1 7 2 204 3 438 l1 424 53 1 52 1 0 -429 c0
-382 2 -432 17 -457 34 -58 116 -68 164 -21 16 16 29 38 30 48 1 10 2 203 3
430 0 226 4 414 7 418 4 3 67 7 140 8 110 2 133 5 131 16 -3 15 -19 73 -48
178 -8 32 -17 65 -19 73 -2 8 -20 69 -39 136 -19 66 -42 145 -50 175 -8 30
-33 119 -56 199 -22 80 -49 176 -59 213 l-19 68 51 -3 51 -3 22 -75 c137 -474
160 -543 189 -567 30 -26 64 -29 104 -9 50 26 59 83 28 176 -8 25 -29 90 -45
145 -158 520 -158 520 -247 587 -64 48 -127 69 -213 71 l-67 1 31 30 c50 49
68 93 68 166 0 149 -127 257 -269 228z" fill="url(#grad2)"/>
</g>
</svg>
